<svg width="111" height="115" viewBox="0 0 111 115" fill="none" xmlns="http://www.w3.org/2000/svg">
<path d="M110.412 55.2222C110.412 85.7296 85.7043 103.63 55.2059 103.63C24.7075 103.63 0 85.7296 0 55.2222C0 24.7149 24.7075 0 55.2059 0C85.7043 0 110.412 24.7149 110.412 55.2222Z" fill="url(#paint0_linear_1454_529245)"/>
<path d="M55.2059 103.63C26.547 103.63 2.99761 87.7966 0.272516 60.583C0.0908428 62.3776 0 64.1721 0 66.0121C0 96.5195 24.7075 114.42 55.2059 114.42C85.7043 114.42 110.412 96.5195 110.412 66.0121C110.412 64.1721 110.321 62.3776 110.139 60.583C107.414 87.8193 83.8648 103.63 55.2059 103.63Z" fill="#4BB767"/>
<path d="M71.5332 35.5504C76.713 35.5504 80.912 31.3501 80.912 26.1688C80.912 20.9874 76.713 16.7871 71.5332 16.7871C66.3534 16.7871 62.1543 20.9874 62.1543 26.1688C62.1543 31.3501 66.3534 35.5504 71.5332 35.5504Z" fill="white"/>
<path d="M88.4747 43.2285C90.9956 43.2285 93.0392 41.1842 93.0392 38.6626C93.0392 36.1409 90.9956 34.0967 88.4747 34.0967C85.9538 34.0967 83.9102 36.1409 83.9102 38.6626C83.9102 41.1842 85.9538 43.2285 88.4747 43.2285Z" fill="white"/>
<path d="M14.4434 63.4682C16.9644 63.4682 19.008 61.424 19.008 58.9023C19.008 56.3806 16.9644 54.3364 14.4434 54.3364C11.9225 54.3364 9.87891 56.3806 9.87891 58.9023C9.87891 61.424 11.9225 63.4682 14.4434 63.4682Z" fill="white"/>
<defs>
<linearGradient id="paint0_linear_1454_529245" x1="55.2059" y1="16.1964" x2="55.2059" y2="96.2698" gradientUnits="userSpaceOnUse">
<stop stop-color="#337F48"/>
<stop offset="0.51" stop-color="#6CE900" stop-opacity="0"/>
<stop offset="0.95" stop-color="white"/>
</linearGradient>
</defs>
</svg>
