<svg width="70" height="73" viewBox="0 0 70 73" fill="none" xmlns="http://www.w3.org/2000/svg">
<path d="M69.5353 34.778C69.5353 53.9956 53.9569 65.2626 34.7677 65.2626C15.5785 65.2626 0 53.9729 0 34.778C0 15.5831 15.5785 0 34.7677 0C53.9569 0 69.5353 15.5831 69.5353 34.778Z" fill="url(#paint0_linear_1454_529240)"/>
<path d="M34.7677 65.2624C16.7139 65.2624 1.88487 55.2901 0.158981 38.1396C0.0454349 39.2754 0 40.4112 0 41.547C0 60.7646 15.5785 72.0317 34.7677 72.0317C53.9569 72.0317 69.5353 60.7419 69.5353 41.547C69.5353 40.3885 69.4673 39.2527 69.3764 38.1396C67.6505 55.2901 52.8214 65.2624 34.7677 65.2624Z" fill="#4BB767"/>
<path d="M45.0547 22.3752C48.3156 22.3752 50.9591 19.731 50.9591 16.4691C50.9591 13.2073 48.3156 10.563 45.0547 10.563C41.7938 10.563 39.1504 13.2073 39.1504 16.4691C39.1504 19.731 41.7938 22.3752 45.0547 22.3752Z" fill="white"/>
<path d="M55.7063 27.2137C57.2991 27.2137 58.5904 25.922 58.5904 24.3287C58.5904 22.7354 57.2991 21.4438 55.7063 21.4438C54.1135 21.4438 52.8223 22.7354 52.8223 24.3287C52.8223 25.922 54.1135 27.2137 55.7063 27.2137Z" fill="white"/>
<defs>
<linearGradient id="paint0_linear_1454_529240" x1="34.7677" y1="10.1994" x2="34.7677" y2="60.6286" gradientUnits="userSpaceOnUse">
<stop stop-color="#337F48"/>
<stop offset="0.51" stop-color="#6CE900" stop-opacity="0"/>
<stop offset="0.95" stop-color="white"/>
</linearGradient>
</defs>
</svg>
