<svg width="721" height="735" viewBox="0 0 721 735" fill="none" xmlns="http://www.w3.org/2000/svg">
<path d="M247.126 373.259C196.69 373.259 74.926 368.852 33.687 328.078C-10.4359 284.465 -10.8446 213.07 32.7787 168.957C54.0567 147.423 82.4653 135.565 112.759 135.565C114.916 135.565 117.051 135.634 119.208 135.747C117.028 103.718 128.655 71.9624 151.409 48.929C172.709 27.3721 201.118 15.5146 231.411 15.5146C261.705 15.5146 289.296 27.0541 310.483 48.0204C342.888 80.0718 353.607 160.711 356.877 222.747C359.057 264.089 357.989 297.617 357.149 313.927C354.946 356.7 351.131 360.539 348.861 362.856C346.681 365.059 343.706 368.057 313.39 370.715C294.496 372.373 270.97 373.282 247.148 373.282L247.126 373.259Z" fill="#2C663A"/>
<path d="M489.835 733.432C460.041 733.432 431.951 721.893 410.763 700.927C378.358 668.875 367.64 588.213 364.37 526.2C362.19 484.858 363.257 451.33 364.097 435.02C366.3 392.247 370.115 388.386 372.386 386.091C374.566 383.888 377.541 380.89 407.857 378.232C426.75 376.574 450.276 375.665 474.098 375.665C524.534 375.665 646.298 380.072 687.537 420.846C708.905 441.971 720.759 470.161 720.941 500.214C721.123 530.266 709.587 558.592 688.445 579.967C667.167 601.501 638.758 613.359 608.465 613.359C606.33 613.359 604.173 613.291 602.016 613.177C604.196 645.206 592.569 676.962 569.815 699.995C548.514 721.552 520.106 733.41 489.812 733.41L489.835 733.432Z" fill="#2C663A"/>
<path d="M463.245 372.009C441.626 372.009 420.666 371.237 404.203 369.851C377.179 367.58 374.454 364.877 372.251 362.696C369.958 360.424 366.097 356.608 363.395 313.858C362.373 297.571 360.897 264.043 362.6 222.678C365.166 160.62 374.954 79.8438 406.996 47.429C428.296 25.8721 456.705 14.0146 486.998 14.0146C517.292 14.0146 544.883 25.5541 566.07 46.5204C589.096 69.2812 601.064 100.901 599.27 132.952C601.859 132.771 604.448 132.68 607.014 132.68C636.807 132.68 664.875 144.219 686.062 165.163C707.431 186.288 719.285 214.478 719.467 244.53C719.649 274.583 708.113 302.909 686.971 324.284C644.437 367.33 516.383 371.986 463.245 371.986V372.009Z" fill="#2C663A"/>
<path d="M234.228 734.911C204.434 734.911 176.343 723.372 155.156 702.405C132.13 679.645 120.162 648.025 121.956 615.973C119.367 616.155 116.801 616.246 114.212 616.246C84.4187 616.246 56.3508 604.707 35.1636 583.763C-8.95932 540.15 -9.36807 468.755 34.2553 424.619C76.7886 381.573 204.888 376.939 258.004 376.939C279.622 376.939 300.582 377.712 317.046 379.097C344.047 381.369 346.795 384.072 348.997 386.253C351.291 388.524 355.151 392.34 357.854 435.091C358.876 451.378 360.352 484.883 358.648 526.27C356.082 588.329 346.295 669.105 314.253 701.52C292.952 723.077 264.544 734.934 234.25 734.934L234.228 734.911Z" fill="#2C663A"/>
<path d="M359.398 445.609C412.649 445.609 455.819 402.427 455.819 349.16C455.819 295.892 412.649 252.71 359.398 252.71C306.146 252.71 262.977 295.892 262.977 349.16C262.977 402.427 306.146 445.609 359.398 445.609Z" fill="#337F48"/>
<path d="M247.126 359.245C196.69 359.245 74.926 354.838 33.687 314.064C-10.4359 270.45 -10.8446 199.056 32.7787 154.942C54.0567 133.408 82.4653 121.551 112.759 121.551C114.916 121.551 117.051 121.619 119.208 121.733C117.028 89.7038 128.655 57.9477 151.409 34.9143C172.687 13.3574 201.095 1.5 231.389 1.5C261.682 1.5 289.273 13.0394 310.46 34.0057C342.865 66.0571 353.584 146.697 356.854 208.732C359.034 250.074 357.967 283.602 357.126 299.912C354.924 342.685 351.109 346.524 348.838 348.841C346.658 351.044 343.683 354.043 313.367 356.701C294.473 358.359 270.947 359.267 247.126 359.267V359.245Z" fill="#337F48"/>
<path d="M489.835 719.441C460.041 719.441 431.951 707.902 410.763 686.935C378.358 654.884 367.64 574.222 364.37 512.209C362.19 470.867 363.257 437.339 364.097 421.029C366.3 378.256 370.115 374.394 372.386 372.1C374.566 369.897 377.541 366.898 407.857 364.241C426.75 362.582 450.276 361.674 474.098 361.674C524.534 361.674 646.298 366.081 687.537 406.855C708.905 427.98 720.759 456.17 720.941 486.222C721.123 516.275 709.587 544.601 688.445 565.976C667.167 587.51 638.758 599.368 608.465 599.368C606.33 599.368 604.173 599.299 602.016 599.186C604.196 631.215 592.569 662.971 569.815 686.004C548.514 707.561 520.106 719.418 489.812 719.418L489.835 719.441Z" fill="#337F48"/>
<path d="M463.245 357.994C441.626 357.994 420.666 357.222 404.203 355.837C377.179 353.565 374.454 350.862 372.251 348.681C369.958 346.41 366.097 342.593 363.395 299.843C362.373 283.556 360.897 250.028 362.6 208.664C365.166 146.605 374.954 65.8292 406.996 33.4143C428.296 11.8574 456.705 0 486.998 0C517.292 0 544.883 11.5394 566.07 32.5057C589.096 55.2665 601.064 86.8864 599.27 118.938C601.859 118.756 604.448 118.665 607.014 118.665C636.807 118.665 664.875 130.205 686.062 151.148C707.431 172.274 719.285 200.463 719.467 230.516C719.649 260.568 708.113 288.894 686.971 310.269C644.437 353.315 516.383 357.972 463.245 357.972V357.994Z" fill="#337F48"/>
<path d="M234.228 720.897C204.434 720.897 176.343 709.357 155.156 688.391C132.13 665.63 120.162 634.01 121.956 601.959C119.367 602.141 116.801 602.231 114.212 602.231C84.4187 602.231 56.3508 590.692 35.1636 569.748C-8.95932 526.135 -9.36807 454.74 34.2553 410.604C76.7886 367.559 204.888 362.925 258.004 362.925C279.622 362.925 300.582 363.697 317.046 365.083C344.047 367.354 346.795 370.057 348.997 372.238C351.291 374.51 355.151 378.326 357.854 421.076C358.876 437.363 360.352 470.868 358.648 512.256C356.082 574.314 346.295 655.09 314.253 687.505C292.952 709.062 264.544 720.919 234.25 720.919L234.228 720.897Z" fill="#337F48"/>
</svg>
