<svg width="826" height="824" viewBox="0 0 826 824" fill="none" xmlns="http://www.w3.org/2000/svg">
<path d="M427.115 0.868164C427.115 0.868164 460.974 319.572 369.07 824H446.758C446.758 824 496.968 303.466 436.198 0.868164H427.115Z" fill="#337F48"/>
<path d="M436.198 0.868164C430.861 0.868164 437.833 10.7269 439.604 66.8577C476.12 483.376 418.734 824 418.734 824H446.757C446.757 824 496.967 303.466 436.198 0.868164Z" fill="#37934D"/>
<path d="M446.281 674.03C507.709 622.283 646.984 531.556 819.869 587.619C829.157 590.64 827.454 604.269 817.689 604.815C753.717 608.267 624.888 623.941 455.16 688.954C445.895 692.498 438.696 680.436 446.281 674.03Z" fill="#37934D"/>
<path d="M421.869 579.555C363.166 518.926 210.151 391.899 6.40512 456.162C-1.54308 458.661 -0.453039 470.86 7.76767 471.609C73.4425 477.652 220.212 501.14 413.421 592.412C421.028 596.001 427.796 585.688 421.846 579.555H421.869Z" fill="#337F48"/>
</svg>
