<svg width="721" height="736" viewBox="0 0 721 736" fill="none" xmlns="http://www.w3.org/2000/svg">
<path d="M247.121 374.244C196.684 374.244 74.9178 369.837 33.678 329.062C-10.4459 285.448 -10.8546 214.052 32.7696 169.938C54.0481 148.403 82.4572 136.546 112.751 136.546C114.909 136.546 117.043 136.614 119.201 136.727C117.02 104.698 128.648 72.9411 151.402 49.9072C172.703 28.3499 201.112 16.4922 231.406 16.4922C261.7 16.4922 289.292 28.0318 310.48 48.9986C342.885 81.0507 353.604 161.692 356.874 223.729C359.054 265.072 357.987 298.6 357.147 314.91C354.944 357.684 351.129 361.523 348.858 363.84C346.678 366.044 343.703 369.042 313.386 371.7C294.492 373.358 270.966 374.267 247.144 374.267L247.121 374.244Z" fill="#2C663A"/>
<path d="M489.836 734.427C460.041 734.427 431.95 722.887 410.762 701.921C378.356 669.869 367.638 589.205 364.368 527.19C362.188 485.847 363.255 452.319 364.095 436.009C366.298 393.235 370.113 389.373 372.384 387.079C374.564 384.876 377.539 381.877 407.856 379.219C426.75 377.561 450.276 376.652 474.098 376.652C524.535 376.652 646.302 381.059 687.541 421.834C708.911 442.96 720.765 471.15 720.946 501.203C721.128 531.256 709.592 559.583 688.45 580.959C667.171 602.493 638.762 614.351 608.468 614.351C606.333 614.351 604.176 614.283 602.019 614.169C604.199 646.199 592.572 677.955 569.817 700.989C548.516 722.547 520.107 734.404 489.813 734.404L489.836 734.427Z" fill="#2C663A"/>
<path d="M463.243 372.995C441.624 372.995 420.664 372.223 404.2 370.837C377.176 368.565 374.451 365.862 372.248 363.682C369.954 361.41 366.094 357.594 363.391 314.842C362.369 298.555 360.893 265.027 362.596 223.661C365.163 161.601 374.95 80.8237 406.993 48.4082C428.294 26.8508 456.703 14.9932 486.997 14.9932C517.291 14.9932 544.883 26.5328 566.07 47.4996C589.097 70.2608 601.065 101.881 599.271 133.933C601.86 133.752 604.449 133.661 607.015 133.661C636.809 133.661 664.878 145.2 686.065 166.144C707.435 187.27 719.289 215.461 719.47 245.514C719.652 275.567 708.116 303.893 686.974 325.269C644.439 368.316 516.383 372.972 463.243 372.972V372.995Z" fill="#2C663A"/>
<path d="M234.223 735.903C204.428 735.903 176.337 724.364 155.15 703.397C132.123 680.636 120.155 649.015 121.949 616.963C119.36 617.145 116.794 617.236 114.205 617.236C84.4106 617.236 56.3422 605.696 35.1545 584.752C-8.9693 541.138 -9.37807 469.742 34.2462 425.605C76.7804 382.558 204.883 377.924 257.999 377.924C279.618 377.924 300.579 378.697 317.043 380.082C344.044 382.354 346.792 385.057 348.995 387.238C351.288 389.509 355.149 393.326 357.851 436.077C358.873 452.364 360.349 485.87 358.646 527.258C356.08 589.318 346.292 670.096 314.25 702.511C292.949 724.069 264.539 735.926 234.245 735.926L234.223 735.903Z" fill="#2C663A"/>
<path d="M359.396 446.595C412.649 446.595 455.819 403.412 455.819 350.143C455.819 296.874 412.649 253.691 359.396 253.691C306.143 253.691 262.973 296.874 262.973 350.143C262.973 403.412 306.143 446.595 359.396 446.595Z" fill="#337F48"/>
<path d="M247.121 360.229C196.684 360.229 74.9177 355.822 33.678 315.047C-10.4459 271.432 -10.8546 200.036 32.7696 155.922C54.0481 134.388 82.4572 122.53 112.751 122.53C114.909 122.53 117.043 122.598 119.201 122.712C117.02 90.6822 128.648 58.9255 151.402 35.8916C172.681 14.3342 201.09 2.47656 231.384 2.47656C261.678 2.47656 289.269 14.0162 310.457 34.983C342.863 67.035 353.581 147.676 356.852 209.713C359.032 251.056 357.964 284.585 357.124 300.895C354.921 343.669 351.106 347.508 348.835 349.825C346.655 352.028 343.68 355.027 313.364 357.684C294.47 359.343 270.943 360.251 247.121 360.251V360.229Z" fill="#337F48"/>
<path d="M489.836 720.434C460.041 720.434 431.95 708.894 410.762 687.928C378.356 655.875 367.638 575.211 364.368 513.197C362.188 471.854 363.255 438.326 364.095 422.016C366.298 379.242 370.113 375.38 372.384 373.086C374.564 370.882 377.539 367.884 407.856 365.226C426.75 363.568 450.276 362.659 474.098 362.659C524.535 362.659 646.302 367.066 687.541 407.841C708.911 428.967 720.765 457.157 720.946 487.21C721.128 517.263 709.592 545.59 688.45 566.966C667.171 588.5 638.762 600.358 608.468 600.358C606.333 600.358 604.176 600.29 602.019 600.176C604.199 632.206 592.572 663.962 569.817 686.996C548.516 708.554 520.107 720.411 489.813 720.411L489.836 720.434Z" fill="#337F48"/>
<path d="M463.243 358.979C441.624 358.979 420.664 358.207 404.2 356.821C377.176 354.55 374.451 351.847 372.248 349.666C369.954 347.394 366.094 343.578 363.391 300.827C362.369 284.54 360.893 251.011 362.596 209.645C365.163 147.586 374.95 66.8081 406.993 34.3926C428.294 12.8352 456.703 0.977539 486.997 0.977539C517.291 0.977539 544.883 12.5172 566.07 33.4839C589.097 56.2452 601.065 87.8657 599.271 119.918C601.86 119.736 604.449 119.645 607.015 119.645C636.809 119.645 664.878 131.185 686.065 152.129C707.435 173.255 719.289 201.445 719.47 231.498C719.652 261.551 708.116 289.878 686.974 311.253C644.439 354.3 516.383 358.957 463.243 358.957V358.979Z" fill="#337F48"/>
<path d="M234.223 721.888C204.428 721.888 176.337 710.348 155.15 689.382C132.123 666.62 120.155 635 121.949 602.948C119.36 603.129 116.794 603.22 114.205 603.22C84.4106 603.22 56.3422 591.681 35.1545 570.737C-8.9693 527.122 -9.37807 455.726 34.2462 411.589C76.7804 368.543 204.883 363.909 257.999 363.909C279.618 363.909 300.579 364.681 317.043 366.067C344.044 368.338 346.792 371.041 348.995 373.222C351.288 375.494 355.149 379.31 357.851 422.061C358.873 438.349 360.349 471.854 358.646 513.243C356.08 575.302 346.292 656.08 314.25 688.496C292.949 710.053 264.539 721.911 234.245 721.911L234.223 721.888Z" fill="#337F48"/>
<path d="M304.076 41.4343C263.472 1.27265 198.001 1.63611 157.852 42.2748C133.371 67.0578 123.97 101.086 129.579 132.979C97.627 127.755 63.7223 137.522 39.2418 162.305C-0.907902 202.944 -0.544548 268.434 40.0821 308.595C96.8776 364.749 333.688 352.255 342.409 343.442C351.129 334.628 360.894 97.6106 304.121 41.457L304.076 41.4343Z" fill="#5DDB75"/>
<path d="M262.699 308.755C206.653 308.755 162.03 300.441 148.995 287.561C130.532 269.32 130.373 239.449 148.609 220.981C157.511 211.985 169.387 207.011 182.059 207.011C184.625 207.011 187.214 207.215 189.735 207.647L210.582 211.054L206.926 190.246C204.291 175.208 209.083 159.784 219.779 148.949C228.681 139.931 240.58 134.979 253.252 134.979C265.924 134.979 277.46 139.817 286.339 148.585C296.99 159.125 305.006 191.109 307.8 234.156C309.843 265.822 308.662 293.785 307.255 306.62C298.693 307.642 283.001 308.755 262.699 308.755Z" fill="#73E583"/>
<path d="M417.144 681.454C457.771 721.615 523.241 721.252 563.391 680.613C587.871 655.83 597.273 621.802 591.664 589.909C623.615 595.133 657.52 585.366 682 560.583C722.15 519.944 721.787 454.454 681.16 414.293C624.365 358.139 387.554 370.633 378.834 379.446C370.113 388.26 360.348 625.277 417.121 681.431L417.144 681.454Z" fill="#48B56A"/>
<path d="M469.239 584.116C456.772 584.116 445.031 579.278 436.152 570.532C425.501 559.992 417.485 528.008 414.691 484.962C412.648 453.296 413.829 425.333 415.237 412.498C423.798 411.476 439.49 410.363 459.792 410.363C515.838 410.363 560.461 418.677 573.496 431.557C582.444 440.393 587.394 452.183 587.463 464.767C587.531 477.329 582.716 489.187 573.86 498.137C564.958 507.132 553.081 512.107 540.409 512.107C537.843 512.107 535.254 511.903 532.734 511.494L511.887 508.086L515.543 528.894C518.177 543.932 513.363 559.356 502.689 570.192C493.787 579.21 481.888 584.162 469.216 584.162L469.239 584.116Z" fill="#53C473"/>
<path d="M680.525 304.893C720.675 264.254 720.312 198.764 679.685 158.603C654.909 134.115 620.891 124.711 589.007 130.321C594.23 98.3602 584.466 64.4454 559.69 39.9577C519.063 -0.203914 453.593 0.159544 413.443 40.7982C357.306 97.6106 369.796 334.492 378.607 343.214C387.418 351.937 624.365 361.705 680.502 304.915L680.525 304.893Z" fill="#3DA059"/>
<path d="M451.436 308.005C433.995 308.005 420.71 307.165 413.126 306.347C411.581 293.512 410.06 265.572 411.74 233.906C414.034 190.814 421.687 158.739 432.201 148.085C441.103 139.067 453.003 134.115 465.674 134.115C478.346 134.115 489.882 138.954 498.762 147.722C509.571 158.421 514.567 173.8 512.092 188.86L508.686 209.714L529.487 206.056C532.189 205.579 534.96 205.352 537.708 205.352C550.175 205.352 561.916 210.168 570.772 218.936C579.72 227.773 584.67 239.562 584.738 252.147C584.807 264.731 579.992 276.566 571.136 285.516C557.601 299.214 510.616 308.051 451.436 308.051V308.005Z" fill="#4BB767"/>
<path d="M40.695 417.995C0.545222 458.634 0.908576 524.124 41.5352 564.285C66.3109 588.773 100.329 598.177 132.213 592.567C126.99 624.528 136.755 658.443 161.53 682.93C202.157 723.092 267.627 722.728 307.777 682.09C363.914 625.277 351.424 388.396 342.613 379.673C333.802 370.951 96.8547 361.183 40.7177 417.972L40.695 417.995Z" fill="#54C659"/>
<path d="M256.635 585.002C244.168 585.002 232.427 580.164 223.548 571.395C212.739 560.696 207.743 545.318 210.218 530.257L213.624 509.404L192.823 513.061C190.12 513.538 187.35 513.765 184.602 513.765C172.135 513.765 160.394 508.95 151.538 500.181C133.075 481.94 132.916 452.069 151.151 433.601C164.686 419.903 211.671 411.067 270.851 411.067C288.292 411.067 301.577 411.907 309.162 412.725C310.706 425.56 312.227 453.5 310.547 485.166C308.253 528.258 300.6 560.333 290.086 570.987C281.184 580.005 269.284 584.957 256.613 584.957L256.635 585.002Z" fill="#62D362"/>
<path d="M317.746 202.127C321.289 256.804 318.723 299.328 317.837 311.072C317.519 315.411 314.113 318.841 309.775 319.227C299.42 320.113 277.483 321.635 247.121 321.635C195.889 321.635 149.767 317.273 115.567 309.845C114.045 309.505 112.456 309.982 111.343 311.095L111.298 311.14C108.731 313.707 109.98 318.114 113.546 318.886C148.154 326.473 194.277 330.744 247.121 330.744C277.824 330.744 300.056 329.222 310.57 328.313C319.381 327.541 326.262 320.59 326.921 311.776C327.806 299.896 330.395 256.826 326.83 201.582C324.718 168.803 320.857 140.135 315.612 116.738C314.817 113.194 310.434 111.967 307.868 114.512C306.755 115.625 306.301 117.215 306.641 118.759C311.842 141.862 315.725 170.324 317.769 202.149L317.746 202.127Z" fill="url(#paint0_linear_1454_529183)"/>
<path d="M403.473 520.785C399.931 466.108 402.497 423.583 403.36 411.839C403.678 407.501 407.084 404.071 411.421 403.684C421.8 402.798 443.737 401.299 474.076 401.299C528.419 401.299 577.016 406.206 611.716 414.474C613.283 414.838 614.895 414.384 616.031 413.248C618.574 410.704 617.371 406.342 613.896 405.502C578.697 397.006 530.167 392.213 474.076 392.213C451.321 392.213 428.794 393.076 410.627 394.643C401.815 395.393 394.935 402.367 394.276 411.181C393.39 423.061 390.802 466.13 394.367 521.375C396.683 557.13 401.043 588.001 407.061 612.443C407.924 615.919 412.262 617.1 414.782 614.578C415.918 613.443 416.372 611.807 415.986 610.24C410.082 586.138 405.676 555.472 403.428 520.807L403.473 520.785Z" fill="url(#paint1_linear_1454_529183)"/>
<path d="M463.266 320.362H463.244C439.195 320.362 421.527 319.408 410.945 318.613C406.584 318.295 403.155 314.911 402.792 310.549C401.793 298.828 398.727 256.304 401.634 201.604C403.155 173.005 406.176 147.108 410.354 125.369C410.649 123.87 410.172 122.348 409.082 121.258C406.471 118.645 401.997 120.008 401.316 123.62C397.115 145.609 394.14 171.71 392.573 201.127C389.643 256.394 392.732 299.441 393.731 311.321C394.48 320.135 401.429 326.995 410.263 327.654C421.005 328.449 438.899 329.426 463.244 329.426H463.266C515.111 329.426 560.757 325.519 596.16 318.477C599.771 317.773 601.088 313.298 598.499 310.708L598.454 310.663C597.364 309.572 595.842 309.118 594.343 309.413C559.235 316.342 513.635 320.362 463.312 320.362H463.266Z" fill="url(#paint2_linear_1454_529183)"/>
<path d="M257.975 402.526C282.047 402.526 299.692 403.48 310.274 404.275C314.634 404.593 318.063 407.977 318.427 412.339C319.426 424.06 322.492 466.562 319.585 521.284C317.632 557.993 313.204 590.249 307.05 615.01C306.663 616.577 307.118 618.213 308.253 619.371C310.774 621.893 315.111 620.734 315.974 617.259C322.265 592.089 326.625 559.674 328.646 521.761C331.575 466.471 328.487 423.447 327.465 411.566C326.716 402.753 319.767 395.893 310.933 395.234C300.191 394.439 282.297 393.462 257.952 393.462C196.888 393.462 144.429 398.891 107.187 408.454C103.735 409.34 102.599 413.656 105.097 416.178C106.255 417.336 107.89 417.791 109.457 417.404C146.178 408.091 198.795 402.571 257.907 402.571L257.975 402.526Z" fill="url(#paint3_linear_1454_529183)"/>
<path d="M9.81041 465.267L52.2311 472.672L9.19727 471.287L9.81041 465.267Z" fill="#2B7A2B"/>
<path d="M25.1387 553.155C46.7351 543.114 67.0824 528.962 86.5442 515.31C72.1693 525.282 56.4091 536.209 43.2151 547.612C38.6052 551.496 34.0861 555.517 29.794 559.856L25.1387 553.177V553.155Z" fill="#2B7A2B"/>
<path d="M710.683 512.357C688.564 503.566 664.288 498.523 640.988 493.775C658.111 497.364 676.891 501.317 694.218 503.066C700.214 503.748 706.232 504.247 712.318 504.406L710.66 512.38L710.683 512.357Z" fill="#2B7A2B"/>
<path d="M662.517 584.957C645.985 567.807 625.978 553.2 606.721 539.23C620.846 549.566 636.311 560.924 651.367 569.669C656.545 572.759 661.813 575.712 667.309 578.369L662.517 584.934V584.957Z" fill="#2B7A2B"/>
<path d="M221.459 714.891C226.205 694.561 232.768 664.599 237.855 644.631C236.924 655.012 235.039 669.982 233.813 680.477L229.475 716.277L221.459 714.869V714.891Z" fill="#2B7A2B"/>
<path d="M526.489 709.485C521.629 689.177 514.09 659.442 509.707 639.316C513.522 649.016 518.541 663.258 522.129 673.185L534.278 707.145L526.489 709.485Z" fill="#2B7A2B"/>
<path d="M29.4991 166.008C46.372 182.795 66.7194 196.992 86.2493 210.531C71.9198 200.491 56.2051 189.474 40.9672 181.023C35.7214 178.047 30.3848 175.208 24.8438 172.664L29.4991 165.985V166.008Z" fill="#2B7A2B"/>
<path d="M229.18 9.56396C231.61 30.3035 235.584 60.7201 237.56 81.2325C234.926 71.1467 231.61 56.4268 229.226 46.1365L221.164 10.9723L229.18 9.56396Z" fill="#2B7A2B"/>
<path d="M709.819 257.848L667.398 250.443L710.432 251.851L709.819 257.848Z" fill="#2B7A2B"/>
<path d="M579.742 55.6771C562.552 70.9649 548.29 89.024 534.143 107.06C542.999 95.8388 551.969 84.708 559.94 72.8276C564.823 65.6948 569.433 58.4712 573.497 50.7705L579.72 55.6998L579.742 55.6771Z" fill="#2B7A2B"/>
<path d="M659.179 139.34C642.465 151.856 618.166 170.574 601.43 182.568C608.81 175.231 619.892 164.963 627.591 157.74L653.933 133.116L659.156 139.34H659.179Z" fill="#2B7A2B"/>
<defs>
<linearGradient id="paint0_linear_1454_529183" x1="311.842" y1="336.786" x2="163.022" y2="155.398" gradientUnits="userSpaceOnUse">
<stop stop-color="#9CE9AB"/>
<stop offset="1" stop-color="#5DDB75"/>
</linearGradient>
<linearGradient id="paint1_linear_1454_529183" x1="392.505" y1="398.619" x2="517.144" y2="515.205" gradientUnits="userSpaceOnUse">
<stop offset="0.28" stop-color="#A1D9B2"/>
<stop offset="1" stop-color="#48B56A"/>
</linearGradient>
<linearGradient id="paint2_linear_1454_529183" x1="382.081" y1="339.603" x2="528.599" y2="190.834" gradientUnits="userSpaceOnUse">
<stop stop-color="#A8DCB8"/>
<stop offset="1" stop-color="#48B56A"/>
</linearGradient>
<linearGradient id="paint3_linear_1454_529183" x1="353.126" y1="392.031" x2="167.864" y2="550.374" gradientUnits="userSpaceOnUse">
<stop stop-color="#87D78A"/>
<stop offset="1" stop-color="#54C659"/>
</linearGradient>
</defs>
</svg>
